<svg width="100" height="100" viewBox="0 0 100 100" fill="none" xmlns="http://www.w3.org/2000/svg">
<g clip-path="url(#clip0_315_235)">
<rect width="100" height="100" fill="white"/>
<path fill-rule="evenodd" clip-rule="evenodd" d="M100 0H0V100H100V0ZM64.7366 57.6102C71.1394 49.8244 74.4499 43.6898 74.6665 39.2099C74.9548 33.2141 72.5962 30.147 67.5933 30.0083C60.8448 29.803 56.2728 33.401 53.8801 40.8098C55.1164 40.3086 56.318 40.0551 57.4837 40.0551C59.9601 40.0551 61.0527 41.3715 60.7625 43.9981C60.615 45.5888 59.5228 47.9043 57.4837 50.9479C55.4426 53.9906 53.9118 55.512 52.8927 55.512C51.5795 55.512 50.3778 53.1693 49.2857 48.478C48.9176 47.1014 48.2632 43.5842 47.3171 37.9297C46.4417 32.6886 44.1094 30.2403 40.3198 30.5843C38.7165 30.7235 36.3107 32.1002 33.1059 34.718C30.7736 36.7161 28.4029 38.7115 26 40.7073L28.2909 43.4969C30.4732 42.0537 31.7479 41.3293 32.1121 41.3293C33.7827 41.3293 35.3451 43.8079 36.8024 48.7587C37.3116 50.523 37.8205 52.2871 38.3295 54.0513C39.1304 56.8275 39.9313 59.6037 40.7327 62.3801C42.694 67.3336 45.0969 69.8095 47.934 69.8095C52.5158 69.8095 58.1167 65.7434 64.7366 57.6102Z" fill="#32B8E8"/>
</g>
<defs>
<clipPath id="clip0_315_235">
<rect width="100" height="100" fill="white"/>
</clipPath>
</defs>
</svg>
