<?xml version="1.0" standalone="no"?>
<!DOCTYPE svg PUBLIC "-//W3C//DTD SVG 20010904//EN"
 "http://www.w3.org/TR/2001/REC-SVG-20010904/DTD/svg10.dtd">
<svg version="1.0" xmlns="http://www.w3.org/2000/svg"
 width="1080.000000pt" height="1080.000000pt" viewBox="0 0 1080.000000 1080.000000"
 preserveAspectRatio="xMidYMid meet">
<metadata>
Created by potrace 1.14, written by Peter Selinger 2001-2017
</metadata>
<g transform="translate(0.000000,1080.000000) scale(0.100000,-0.100000)"
fill="#000000" stroke="none">
<path d="M1066 9736 c-26 -13 -49 -36 -63 -61 l-23 -40 3 -4245 2 -4245 25
-34 c14 -19 42 -41 63 -51 35 -16 304 -17 4275 -16 4100 1 4238 2 4267 19 17
11 42 35 55 55 l25 36 1 4232 c1 3282 -2 4240 -11 4267 -13 39 -56 81 -95 95
-14 5 -1814 9 -4254 9 l-4228 0 -42 -21z m8300 -4335 l-1 -4026 -4027 -1
-4028 -2 0 4028 0 4028 4029 0 4028 0 -1 -4027z"/>
<path d="M5290 7962 c-1 -101 -1 -4956 0 -5094 l0 -107 48 2 47 2 0 2635 0
2635 -47 2 -48 2 0 -77z"/>
<path d="M7200 6315 c-197 -34 -332 -96 -441 -205 -115 -113 -160 -222 -161
-385 -1 -154 44 -261 149 -354 112 -100 208 -136 604 -226 180 -40 244 -84
220 -148 -33 -85 -319 -87 -575 -3 -60 20 -137 51 -171 69 l-62 33 -93 -210
c-51 -116 -95 -218 -97 -226 -2 -10 14 -24 49 -42 137 -71 305 -117 528 -144
101 -13 341 -8 436 9 381 68 602 297 590 611 -5 107 -29 185 -81 256 -37 50
-132 128 -195 160 -73 36 -216 77 -410 116 -237 47 -290 72 -290 135 0 137
353 137 655 0 l66 -30 9 22 c4 12 45 109 89 216 45 106 81 197 81 201 0 11
-115 65 -190 88 -60 20 -152 41 -240 58 -70 12 -394 12 -470 -1z"/>
<path d="M2090 5398 l0 -893 278 0 277 0 1 370 c1 204 2 374 3 379 0 5 83
-123 183 -285 100 -162 183 -296 186 -299 2 -3 64 -5 138 -6 l135 -1 22 36
c12 20 29 48 37 63 53 94 314 527 316 525 2 -1 4 -177 5 -390 1 -213 4 -388 8
-388 3 -1 129 -2 279 -3 l273 -1 -2 892 -3 893 -251 0 c-227 0 -251 -2 -261
-17 -6 -10 -131 -220 -279 -468 -147 -247 -268 -451 -269 -452 -1 -2 -381 616
-422 687 -12 20 -51 84 -86 141 l-65 104 -251 3 -252 2 0 -892z"/>
</g>
</svg>
